# xmcd
#
# Track frame offsets: 
#        150
#        15982
#        22039
#        39316
#        56620
#        69239
#        84156
#        93355
#        103699
#        115576
#
# Disc length: 1719 seconds
#
# Revision: 1
# Processed by: cddbd v1.5PL3 Copyright (c) Steve Scherf et al.
# Submitted via: ExactAudioCopy v0.95a3
#
DISCID=6906b50a
DTITLE=Eric Clapton - Lonely Years
DYEAR=1900
DGENRE=Soul
TTITLE0=Louise
TTITLE1=Chocker
TTITLE2=They Call It Stormy Monday
TTITLE3=Early In The Morning
TTITLE4=Good Morning Little School Girl
TTITLE5=Lonely Years
TTITLE6=I Ain't Got You
TTITLE7=I Wish You Would
TTITLE8=Got To Hurry
TTITLE9=Too Much Monkey Business
EXTD=
EXTT0=
EXTT1=
EXTT2=
EXTT3=
EXTT4=
EXTT5=
EXTT6=
EXTT7=
EXTT8=
EXTT9=
PLAYORDER=
